G75*
%MOIN*%
%OFA0B0*%
%FSLAX25Y25*%
%IPPOS*%
%LPD*%
%AMOC8*
5,1,8,0,0,1.08239X$1,22.5*
%
%ADD10C,0.00000*%
%ADD11C,0.03564*%
%ADD12R,0.02362X0.05118*%
%ADD13C,0.02339*%
D10*
X0001250Y0001000D02*
X0001250Y0071000D01*
X0121250Y0071000D01*
X0121250Y0001000D01*
X0001250Y0001000D01*
D11*
X0114968Y0042032D02*
X0114968Y0042068D01*
X0114968Y0042032D02*
X0112532Y0042032D01*
X0112532Y0042068D01*
X0114968Y0042068D01*
X0114968Y0049932D02*
X0114968Y0049968D01*
X0114968Y0049932D02*
X0112532Y0049932D01*
X0112532Y0049968D01*
X0114968Y0049968D01*
D12*
X0103750Y0025567D03*
D13*
X0098762Y0026957D02*
X0098762Y0024177D01*
X0098738Y0024177D01*
X0098738Y0026957D01*
X0098762Y0026957D01*
X0098762Y0026515D02*
X0098738Y0026515D01*
X0093762Y0026957D02*
X0093762Y0024177D01*
X0093738Y0024177D01*
X0093738Y0026957D01*
X0093762Y0026957D01*
X0093762Y0026515D02*
X0093738Y0026515D01*
X0088762Y0026957D02*
X0088762Y0024177D01*
X0088738Y0024177D01*
X0088738Y0026957D01*
X0088762Y0026957D01*
X0088762Y0026515D02*
X0088738Y0026515D01*
X0083762Y0026957D02*
X0083762Y0024177D01*
X0083738Y0024177D01*
X0083738Y0026957D01*
X0083762Y0026957D01*
X0083762Y0026515D02*
X0083738Y0026515D01*
X0078762Y0026957D02*
X0078762Y0024177D01*
X0078738Y0024177D01*
X0078738Y0026957D01*
X0078762Y0026957D01*
X0078762Y0026515D02*
X0078738Y0026515D01*
X0073762Y0026957D02*
X0073762Y0024177D01*
X0073738Y0024177D01*
X0073738Y0026957D01*
X0073762Y0026957D01*
X0073762Y0026515D02*
X0073738Y0026515D01*
X0068762Y0026957D02*
X0068762Y0024177D01*
X0068738Y0024177D01*
X0068738Y0026957D01*
X0068762Y0026957D01*
X0068762Y0026515D02*
X0068738Y0026515D01*
X0068762Y0045043D02*
X0068762Y0047823D01*
X0068762Y0045043D02*
X0068738Y0045043D01*
X0068738Y0047823D01*
X0068762Y0047823D01*
X0068762Y0047381D02*
X0068738Y0047381D01*
X0073762Y0047823D02*
X0073762Y0045043D01*
X0073738Y0045043D01*
X0073738Y0047823D01*
X0073762Y0047823D01*
X0073762Y0047381D02*
X0073738Y0047381D01*
X0078762Y0047823D02*
X0078762Y0045043D01*
X0078738Y0045043D01*
X0078738Y0047823D01*
X0078762Y0047823D01*
X0078762Y0047381D02*
X0078738Y0047381D01*
X0083762Y0047823D02*
X0083762Y0045043D01*
X0083738Y0045043D01*
X0083738Y0047823D01*
X0083762Y0047823D01*
X0083762Y0047381D02*
X0083738Y0047381D01*
X0088762Y0047823D02*
X0088762Y0045043D01*
X0088738Y0045043D01*
X0088738Y0047823D01*
X0088762Y0047823D01*
X0088762Y0047381D02*
X0088738Y0047381D01*
X0093762Y0047823D02*
X0093762Y0045043D01*
X0093738Y0045043D01*
X0093738Y0047823D01*
X0093762Y0047823D01*
X0093762Y0047381D02*
X0093738Y0047381D01*
X0098762Y0047823D02*
X0098762Y0045043D01*
X0098738Y0045043D01*
X0098738Y0047823D01*
X0098762Y0047823D01*
X0098762Y0047381D02*
X0098738Y0047381D01*
X0103762Y0047823D02*
X0103762Y0045043D01*
X0103738Y0045043D01*
X0103738Y0047823D01*
X0103762Y0047823D01*
X0103762Y0047381D02*
X0103738Y0047381D01*
M02*
