G75*
%MOIN*%
%OFA0B0*%
%FSLAX25Y25*%
%IPPOS*%
%LPD*%
%AMOC8*
5,1,8,0,0,1.08239X$1,22.5*
%
%ADD10C,0.00000*%
%ADD11C,0.04059*%
%ADD12R,0.06406X0.06406*%
%ADD13C,0.06406*%
%ADD14R,0.02862X0.05618*%
%ADD15C,0.02834*%
D10*
X0001250Y0001000D02*
X0001250Y0071000D01*
X0121250Y0071000D01*
X0121250Y0001000D01*
X0001250Y0001000D01*
D11*
X0114971Y0042029D02*
X0114971Y0042071D01*
X0114971Y0042029D02*
X0112529Y0042029D01*
X0112529Y0042071D01*
X0114971Y0042071D01*
X0114971Y0049929D02*
X0114971Y0049971D01*
X0114971Y0049929D02*
X0112529Y0049929D01*
X0112529Y0049971D01*
X0114971Y0049971D01*
D12*
X0006250Y0006000D03*
D13*
X0016250Y0006000D03*
X0026250Y0006000D03*
X0036250Y0006000D03*
X0046250Y0006000D03*
X0056250Y0006000D03*
X0066250Y0006000D03*
X0076250Y0006000D03*
X0086250Y0006000D03*
X0096250Y0006000D03*
X0106250Y0006000D03*
X0116250Y0006000D03*
X0116250Y0066000D03*
X0106250Y0066000D03*
X0096250Y0066000D03*
X0086250Y0066000D03*
X0076250Y0066000D03*
X0066250Y0066000D03*
X0056250Y0066000D03*
X0046250Y0066000D03*
X0036250Y0066000D03*
X0026250Y0066000D03*
X0016250Y0066000D03*
X0006250Y0066000D03*
D14*
X0103750Y0025567D03*
D15*
X0098764Y0026959D02*
X0098764Y0024175D01*
X0098736Y0024175D01*
X0098736Y0026959D01*
X0098764Y0026959D01*
X0093764Y0026959D02*
X0093764Y0024175D01*
X0093736Y0024175D01*
X0093736Y0026959D01*
X0093764Y0026959D01*
X0088764Y0026959D02*
X0088764Y0024175D01*
X0088736Y0024175D01*
X0088736Y0026959D01*
X0088764Y0026959D01*
X0083764Y0026959D02*
X0083764Y0024175D01*
X0083736Y0024175D01*
X0083736Y0026959D01*
X0083764Y0026959D01*
X0078764Y0026959D02*
X0078764Y0024175D01*
X0078736Y0024175D01*
X0078736Y0026959D01*
X0078764Y0026959D01*
X0073764Y0026959D02*
X0073764Y0024175D01*
X0073736Y0024175D01*
X0073736Y0026959D01*
X0073764Y0026959D01*
X0068764Y0026959D02*
X0068764Y0024175D01*
X0068736Y0024175D01*
X0068736Y0026959D01*
X0068764Y0026959D01*
X0068764Y0045041D02*
X0068764Y0047825D01*
X0068764Y0045041D02*
X0068736Y0045041D01*
X0068736Y0047825D01*
X0068764Y0047825D01*
X0073764Y0047825D02*
X0073764Y0045041D01*
X0073736Y0045041D01*
X0073736Y0047825D01*
X0073764Y0047825D01*
X0078764Y0047825D02*
X0078764Y0045041D01*
X0078736Y0045041D01*
X0078736Y0047825D01*
X0078764Y0047825D01*
X0083764Y0047825D02*
X0083764Y0045041D01*
X0083736Y0045041D01*
X0083736Y0047825D01*
X0083764Y0047825D01*
X0088764Y0047825D02*
X0088764Y0045041D01*
X0088736Y0045041D01*
X0088736Y0047825D01*
X0088764Y0047825D01*
X0093764Y0047825D02*
X0093764Y0045041D01*
X0093736Y0045041D01*
X0093736Y0047825D01*
X0093764Y0047825D01*
X0098764Y0047825D02*
X0098764Y0045041D01*
X0098736Y0045041D01*
X0098736Y0047825D01*
X0098764Y0047825D01*
X0103764Y0047825D02*
X0103764Y0045041D01*
X0103736Y0045041D01*
X0103736Y0047825D01*
X0103764Y0047825D01*
M02*
