G75*
%MOIN*%
%OFA0B0*%
%FSLAX25Y25*%
%IPPOS*%
%LPD*%
%AMOC8*
5,1,8,0,0,1.08239X$1,22.5*
%
%ADD10C,0.00000*%
%ADD11C,0.03564*%
%ADD12R,0.05906X0.05906*%
%ADD13C,0.05906*%
%ADD14R,0.02362X0.05118*%
%ADD15C,0.02339*%
%ADD16C,0.00600*%
%ADD17C,0.02000*%
D10*
X0001250Y0001000D02*
X0001250Y0071000D01*
X0121250Y0071000D01*
X0121250Y0001000D01*
X0001250Y0001000D01*
D11*
X0114968Y0042032D02*
X0114968Y0042068D01*
X0114968Y0042032D02*
X0112532Y0042032D01*
X0112532Y0042068D01*
X0114968Y0042068D01*
X0114968Y0049932D02*
X0114968Y0049968D01*
X0114968Y0049932D02*
X0112532Y0049932D01*
X0112532Y0049968D01*
X0114968Y0049968D01*
D12*
X0006250Y0006000D03*
D13*
X0016250Y0006000D03*
X0026250Y0006000D03*
X0036250Y0006000D03*
X0046250Y0006000D03*
X0056250Y0006000D03*
X0066250Y0006000D03*
X0076250Y0006000D03*
X0086250Y0006000D03*
X0096250Y0006000D03*
X0106250Y0006000D03*
X0116250Y0006000D03*
X0116250Y0066000D03*
X0106250Y0066000D03*
X0096250Y0066000D03*
X0086250Y0066000D03*
X0076250Y0066000D03*
X0066250Y0066000D03*
X0056250Y0066000D03*
X0046250Y0066000D03*
X0036250Y0066000D03*
X0026250Y0066000D03*
X0016250Y0066000D03*
X0006250Y0066000D03*
D14*
X0103750Y0025567D03*
D15*
X0098762Y0026957D02*
X0098762Y0024177D01*
X0098738Y0024177D01*
X0098738Y0026957D01*
X0098762Y0026957D01*
X0098762Y0026515D02*
X0098738Y0026515D01*
X0093762Y0026957D02*
X0093762Y0024177D01*
X0093738Y0024177D01*
X0093738Y0026957D01*
X0093762Y0026957D01*
X0093762Y0026515D02*
X0093738Y0026515D01*
X0088762Y0026957D02*
X0088762Y0024177D01*
X0088738Y0024177D01*
X0088738Y0026957D01*
X0088762Y0026957D01*
X0088762Y0026515D02*
X0088738Y0026515D01*
X0083762Y0026957D02*
X0083762Y0024177D01*
X0083738Y0024177D01*
X0083738Y0026957D01*
X0083762Y0026957D01*
X0083762Y0026515D02*
X0083738Y0026515D01*
X0078762Y0026957D02*
X0078762Y0024177D01*
X0078738Y0024177D01*
X0078738Y0026957D01*
X0078762Y0026957D01*
X0078762Y0026515D02*
X0078738Y0026515D01*
X0073762Y0026957D02*
X0073762Y0024177D01*
X0073738Y0024177D01*
X0073738Y0026957D01*
X0073762Y0026957D01*
X0073762Y0026515D02*
X0073738Y0026515D01*
X0068762Y0026957D02*
X0068762Y0024177D01*
X0068738Y0024177D01*
X0068738Y0026957D01*
X0068762Y0026957D01*
X0068762Y0026515D02*
X0068738Y0026515D01*
X0068762Y0045043D02*
X0068762Y0047823D01*
X0068762Y0045043D02*
X0068738Y0045043D01*
X0068738Y0047823D01*
X0068762Y0047823D01*
X0068762Y0047381D02*
X0068738Y0047381D01*
X0073762Y0047823D02*
X0073762Y0045043D01*
X0073738Y0045043D01*
X0073738Y0047823D01*
X0073762Y0047823D01*
X0073762Y0047381D02*
X0073738Y0047381D01*
X0078762Y0047823D02*
X0078762Y0045043D01*
X0078738Y0045043D01*
X0078738Y0047823D01*
X0078762Y0047823D01*
X0078762Y0047381D02*
X0078738Y0047381D01*
X0083762Y0047823D02*
X0083762Y0045043D01*
X0083738Y0045043D01*
X0083738Y0047823D01*
X0083762Y0047823D01*
X0083762Y0047381D02*
X0083738Y0047381D01*
X0088762Y0047823D02*
X0088762Y0045043D01*
X0088738Y0045043D01*
X0088738Y0047823D01*
X0088762Y0047823D01*
X0088762Y0047381D02*
X0088738Y0047381D01*
X0093762Y0047823D02*
X0093762Y0045043D01*
X0093738Y0045043D01*
X0093738Y0047823D01*
X0093762Y0047823D01*
X0093762Y0047381D02*
X0093738Y0047381D01*
X0098762Y0047823D02*
X0098762Y0045043D01*
X0098738Y0045043D01*
X0098738Y0047823D01*
X0098762Y0047823D01*
X0098762Y0047381D02*
X0098738Y0047381D01*
X0103762Y0047823D02*
X0103762Y0045043D01*
X0103738Y0045043D01*
X0103738Y0047823D01*
X0103762Y0047823D01*
X0103762Y0047381D02*
X0103738Y0047381D01*
D16*
X0103750Y0046433D02*
X0103750Y0049893D01*
X0109792Y0049893D01*
X0109850Y0049950D01*
X0113750Y0049950D01*
X0109850Y0049950D02*
X0109850Y0060746D01*
X0110200Y0061096D01*
X0110200Y0067546D01*
X0107889Y0069857D01*
X0010107Y0069857D01*
X0006250Y0066000D01*
X0016250Y0066000D02*
X0032357Y0049893D01*
X0073750Y0049893D01*
X0073750Y0046433D01*
X0075831Y0049565D02*
X0074303Y0051093D01*
X0041157Y0051093D01*
X0026250Y0066000D01*
X0036250Y0066000D02*
X0046248Y0056002D01*
X0074204Y0056002D01*
X0080831Y0049374D01*
X0080831Y0031108D01*
X0078750Y0029026D01*
X0078750Y0025567D01*
X0073750Y0025567D02*
X0073750Y0029026D01*
X0075831Y0031108D01*
X0075831Y0049565D01*
X0078750Y0046433D02*
X0078750Y0041924D01*
X0078450Y0041625D01*
X0083750Y0046433D02*
X0083750Y0049893D01*
X0076441Y0057202D01*
X0055048Y0057202D01*
X0046250Y0066000D01*
X0056250Y0066000D02*
X0063848Y0058402D01*
X0077014Y0058402D01*
X0085831Y0049585D01*
X0085831Y0031108D01*
X0083750Y0029026D01*
X0083750Y0025567D01*
X0088750Y0025567D02*
X0088750Y0029026D01*
X0090831Y0031108D01*
X0090831Y0051419D01*
X0076250Y0066000D01*
X0078439Y0060204D02*
X0072046Y0060204D01*
X0066250Y0066000D01*
X0078439Y0060204D02*
X0088750Y0049893D01*
X0088750Y0046433D01*
X0093750Y0046433D02*
X0093750Y0058500D01*
X0086250Y0066000D01*
X0096250Y0066000D02*
X0096250Y0031526D01*
X0093750Y0029026D01*
X0093750Y0025567D01*
X0098750Y0025567D02*
X0098750Y0008500D01*
X0096250Y0006000D01*
X0094849Y0001940D02*
X0091250Y0005539D01*
X0091250Y0006670D01*
X0075813Y0022107D01*
X0068750Y0022107D01*
X0068750Y0025567D01*
X0068750Y0042974D02*
X0047077Y0042974D01*
X0010103Y0006000D01*
X0006250Y0006000D01*
X0068750Y0042974D02*
X0068750Y0046433D01*
X0098750Y0046433D02*
X0098750Y0058500D01*
X0106250Y0066000D01*
X0116250Y0066000D02*
X0117651Y0064599D01*
X0117651Y0047773D01*
X0114629Y0044751D01*
X0110333Y0044751D01*
X0103750Y0038167D01*
X0103750Y0025567D01*
X0106250Y0033184D02*
X0107523Y0034457D01*
X0106250Y0033184D02*
X0106250Y0006000D01*
X0112190Y0001940D02*
X0116250Y0006000D01*
X0116250Y0036850D01*
X0113750Y0039350D01*
X0113750Y0042050D01*
X0112190Y0001940D02*
X0094849Y0001940D01*
D17*
X0107523Y0034457D03*
X0078450Y0041625D03*
M02*
