G75*
%MOIN*%
%OFA0B0*%
%FSLAX25Y25*%
%IPPOS*%
%LPD*%
%AMOC8*
5,1,8,0,0,1.08239X$1,22.5*
%
%ADD10C,0.00000*%
%ADD11C,0.03564*%
%ADD12R,0.05906X0.05906*%
%ADD13C,0.05906*%
%ADD14R,0.02362X0.05118*%
%ADD15C,0.02339*%
%ADD16C,0.00600*%
%ADD17C,0.02000*%
D10*
X0001250Y0001000D02*
X0001250Y0071000D01*
X0121250Y0071000D01*
X0121250Y0001000D01*
X0001250Y0001000D01*
D11*
X0009968Y0042032D02*
X0009968Y0042068D01*
X0009968Y0042032D02*
X0007532Y0042032D01*
X0007532Y0042068D01*
X0009968Y0042068D01*
X0009968Y0049932D02*
X0009968Y0049968D01*
X0009968Y0049932D02*
X0007532Y0049932D01*
X0007532Y0049968D01*
X0009968Y0049968D01*
D12*
X0006250Y0006000D03*
D13*
X0016250Y0006000D03*
X0026250Y0006000D03*
X0036250Y0006000D03*
X0046250Y0006000D03*
X0056250Y0006000D03*
X0066250Y0006000D03*
X0076250Y0006000D03*
X0086250Y0006000D03*
X0096250Y0006000D03*
X0106250Y0006000D03*
X0116250Y0006000D03*
X0116250Y0066000D03*
X0106250Y0066000D03*
X0096250Y0066000D03*
X0086250Y0066000D03*
X0076250Y0066000D03*
X0066250Y0066000D03*
X0056250Y0066000D03*
X0046250Y0066000D03*
X0036250Y0066000D03*
X0026250Y0066000D03*
X0016250Y0066000D03*
X0006250Y0066000D03*
D14*
X0018750Y0025567D03*
D15*
X0023762Y0026957D02*
X0023762Y0024177D01*
X0023738Y0024177D01*
X0023738Y0026957D01*
X0023762Y0026957D01*
X0023762Y0026515D02*
X0023738Y0026515D01*
X0028762Y0026957D02*
X0028762Y0024177D01*
X0028738Y0024177D01*
X0028738Y0026957D01*
X0028762Y0026957D01*
X0028762Y0026515D02*
X0028738Y0026515D01*
X0033762Y0026957D02*
X0033762Y0024177D01*
X0033738Y0024177D01*
X0033738Y0026957D01*
X0033762Y0026957D01*
X0033762Y0026515D02*
X0033738Y0026515D01*
X0038762Y0026957D02*
X0038762Y0024177D01*
X0038738Y0024177D01*
X0038738Y0026957D01*
X0038762Y0026957D01*
X0038762Y0026515D02*
X0038738Y0026515D01*
X0043762Y0026957D02*
X0043762Y0024177D01*
X0043738Y0024177D01*
X0043738Y0026957D01*
X0043762Y0026957D01*
X0043762Y0026515D02*
X0043738Y0026515D01*
X0048762Y0026957D02*
X0048762Y0024177D01*
X0048738Y0024177D01*
X0048738Y0026957D01*
X0048762Y0026957D01*
X0048762Y0026515D02*
X0048738Y0026515D01*
X0053762Y0026957D02*
X0053762Y0024177D01*
X0053738Y0024177D01*
X0053738Y0026957D01*
X0053762Y0026957D01*
X0053762Y0026515D02*
X0053738Y0026515D01*
X0053762Y0045043D02*
X0053762Y0047823D01*
X0053762Y0045043D02*
X0053738Y0045043D01*
X0053738Y0047823D01*
X0053762Y0047823D01*
X0053762Y0047381D02*
X0053738Y0047381D01*
X0048762Y0047823D02*
X0048762Y0045043D01*
X0048738Y0045043D01*
X0048738Y0047823D01*
X0048762Y0047823D01*
X0048762Y0047381D02*
X0048738Y0047381D01*
X0043762Y0047823D02*
X0043762Y0045043D01*
X0043738Y0045043D01*
X0043738Y0047823D01*
X0043762Y0047823D01*
X0043762Y0047381D02*
X0043738Y0047381D01*
X0038762Y0047823D02*
X0038762Y0045043D01*
X0038738Y0045043D01*
X0038738Y0047823D01*
X0038762Y0047823D01*
X0038762Y0047381D02*
X0038738Y0047381D01*
X0033762Y0047823D02*
X0033762Y0045043D01*
X0033738Y0045043D01*
X0033738Y0047823D01*
X0033762Y0047823D01*
X0033762Y0047381D02*
X0033738Y0047381D01*
X0028762Y0047823D02*
X0028762Y0045043D01*
X0028738Y0045043D01*
X0028738Y0047823D01*
X0028762Y0047823D01*
X0028762Y0047381D02*
X0028738Y0047381D01*
X0023762Y0047823D02*
X0023762Y0045043D01*
X0023738Y0045043D01*
X0023738Y0047823D01*
X0023762Y0047823D01*
X0023762Y0047381D02*
X0023738Y0047381D01*
X0018762Y0047823D02*
X0018762Y0045043D01*
X0018738Y0045043D01*
X0018738Y0047823D01*
X0018762Y0047823D01*
X0018762Y0047381D02*
X0018738Y0047381D01*
D16*
X0018750Y0046433D02*
X0018750Y0049893D01*
X0012708Y0049893D01*
X0012650Y0049950D01*
X0008750Y0049950D01*
X0008750Y0052650D01*
X0006250Y0055150D01*
X0006250Y0066000D01*
X0002397Y0067854D02*
X0002397Y0013706D01*
X0006250Y0009853D01*
X0006250Y0006000D01*
X0010825Y0005710D02*
X0010825Y0037274D01*
X0008750Y0039350D01*
X0008750Y0042050D01*
X0020831Y0048540D02*
X0020831Y0031108D01*
X0018750Y0029026D01*
X0018750Y0025567D01*
X0023750Y0025567D02*
X0023750Y0013500D01*
X0016250Y0006000D01*
X0014389Y0002146D02*
X0010825Y0005710D01*
X0014389Y0002146D02*
X0098120Y0002146D01*
X0101250Y0005277D01*
X0101250Y0006691D01*
X0085834Y0022107D01*
X0053750Y0022107D01*
X0053750Y0025567D01*
X0048750Y0025567D02*
X0048750Y0029026D01*
X0104803Y0029026D01*
X0120310Y0044533D01*
X0120310Y0067554D01*
X0117804Y0070060D01*
X0110310Y0070060D01*
X0106250Y0066000D01*
X0116250Y0066000D02*
X0093831Y0043581D01*
X0067451Y0043581D01*
X0067069Y0043199D01*
X0046837Y0043199D01*
X0046549Y0043487D01*
X0046549Y0048875D01*
X0045354Y0050070D01*
X0022361Y0050070D01*
X0020831Y0048540D01*
X0023750Y0046433D02*
X0023750Y0040730D01*
X0030831Y0033648D01*
X0030831Y0011419D01*
X0036250Y0006000D01*
X0028750Y0008500D02*
X0026250Y0006000D01*
X0028750Y0008500D02*
X0028750Y0025567D01*
X0033750Y0025567D02*
X0033750Y0018500D01*
X0046250Y0006000D01*
X0053048Y0006000D02*
X0036549Y0022499D01*
X0036549Y0033400D01*
X0028750Y0041199D01*
X0028750Y0046433D01*
X0033750Y0046433D02*
X0033750Y0041327D01*
X0041250Y0033827D01*
X0041250Y0022799D01*
X0047812Y0016238D01*
X0066012Y0016238D01*
X0076250Y0006000D01*
X0066250Y0006000D02*
X0058423Y0013827D01*
X0047031Y0013827D01*
X0038750Y0022107D01*
X0038750Y0025567D01*
X0043750Y0025567D02*
X0043750Y0022107D01*
X0047550Y0018307D01*
X0073943Y0018307D01*
X0086250Y0006000D01*
X0096250Y0006000D02*
X0082723Y0019527D01*
X0049757Y0019527D01*
X0046549Y0022735D01*
X0046549Y0034594D01*
X0038750Y0042394D01*
X0038750Y0046433D01*
X0043750Y0046433D02*
X0043750Y0042974D01*
X0045099Y0041625D01*
X0078450Y0041625D01*
X0100356Y0041625D01*
X0107523Y0034457D01*
X0104604Y0010045D02*
X0101250Y0006691D01*
X0104604Y0010045D02*
X0112205Y0010045D01*
X0116250Y0006000D01*
X0056250Y0006000D02*
X0053048Y0006000D01*
X0053750Y0046433D02*
X0053750Y0049893D01*
X0044556Y0059087D01*
X0027516Y0059087D01*
X0021250Y0065352D01*
X0021250Y0066478D01*
X0017875Y0069854D01*
X0004396Y0069854D01*
X0002397Y0067854D01*
X0016250Y0066000D02*
X0029385Y0052865D01*
X0045778Y0052865D01*
X0048750Y0049893D01*
X0048750Y0046433D01*
D17*
X0078450Y0041625D03*
X0107523Y0034457D03*
M02*
