G75*
%MOIN*%
%OFA0B0*%
%FSLAX25Y25*%
%IPPOS*%
%LPD*%
%AMOC8*
5,1,8,0,0,1.08239X$1,22.5*
%
%ADD10C,0.00000*%
%ADD11C,0.04059*%
%ADD12R,0.06406X0.06406*%
%ADD13C,0.06406*%
%ADD14R,0.02862X0.05618*%
%ADD15C,0.02834*%
D10*
X0001250Y0001000D02*
X0001250Y0071000D01*
X0121250Y0071000D01*
X0121250Y0001000D01*
X0001250Y0001000D01*
D11*
X0009971Y0042029D02*
X0009971Y0042071D01*
X0009971Y0042029D02*
X0007529Y0042029D01*
X0007529Y0042071D01*
X0009971Y0042071D01*
X0009971Y0049929D02*
X0009971Y0049971D01*
X0009971Y0049929D02*
X0007529Y0049929D01*
X0007529Y0049971D01*
X0009971Y0049971D01*
D12*
X0006250Y0006000D03*
D13*
X0016250Y0006000D03*
X0026250Y0006000D03*
X0036250Y0006000D03*
X0046250Y0006000D03*
X0056250Y0006000D03*
X0066250Y0006000D03*
X0076250Y0006000D03*
X0086250Y0006000D03*
X0096250Y0006000D03*
X0106250Y0006000D03*
X0116250Y0006000D03*
X0116250Y0066000D03*
X0106250Y0066000D03*
X0096250Y0066000D03*
X0086250Y0066000D03*
X0076250Y0066000D03*
X0066250Y0066000D03*
X0056250Y0066000D03*
X0046250Y0066000D03*
X0036250Y0066000D03*
X0026250Y0066000D03*
X0016250Y0066000D03*
X0006250Y0066000D03*
D14*
X0018750Y0025567D03*
D15*
X0023764Y0026959D02*
X0023764Y0024175D01*
X0023736Y0024175D01*
X0023736Y0026959D01*
X0023764Y0026959D01*
X0028764Y0026959D02*
X0028764Y0024175D01*
X0028736Y0024175D01*
X0028736Y0026959D01*
X0028764Y0026959D01*
X0033764Y0026959D02*
X0033764Y0024175D01*
X0033736Y0024175D01*
X0033736Y0026959D01*
X0033764Y0026959D01*
X0038764Y0026959D02*
X0038764Y0024175D01*
X0038736Y0024175D01*
X0038736Y0026959D01*
X0038764Y0026959D01*
X0043764Y0026959D02*
X0043764Y0024175D01*
X0043736Y0024175D01*
X0043736Y0026959D01*
X0043764Y0026959D01*
X0048764Y0026959D02*
X0048764Y0024175D01*
X0048736Y0024175D01*
X0048736Y0026959D01*
X0048764Y0026959D01*
X0053764Y0026959D02*
X0053764Y0024175D01*
X0053736Y0024175D01*
X0053736Y0026959D01*
X0053764Y0026959D01*
X0053764Y0045041D02*
X0053764Y0047825D01*
X0053764Y0045041D02*
X0053736Y0045041D01*
X0053736Y0047825D01*
X0053764Y0047825D01*
X0048764Y0047825D02*
X0048764Y0045041D01*
X0048736Y0045041D01*
X0048736Y0047825D01*
X0048764Y0047825D01*
X0043764Y0047825D02*
X0043764Y0045041D01*
X0043736Y0045041D01*
X0043736Y0047825D01*
X0043764Y0047825D01*
X0038764Y0047825D02*
X0038764Y0045041D01*
X0038736Y0045041D01*
X0038736Y0047825D01*
X0038764Y0047825D01*
X0033764Y0047825D02*
X0033764Y0045041D01*
X0033736Y0045041D01*
X0033736Y0047825D01*
X0033764Y0047825D01*
X0028764Y0047825D02*
X0028764Y0045041D01*
X0028736Y0045041D01*
X0028736Y0047825D01*
X0028764Y0047825D01*
X0023764Y0047825D02*
X0023764Y0045041D01*
X0023736Y0045041D01*
X0023736Y0047825D01*
X0023764Y0047825D01*
X0018764Y0047825D02*
X0018764Y0045041D01*
X0018736Y0045041D01*
X0018736Y0047825D01*
X0018764Y0047825D01*
M02*
