%
M48
M72
T01C0.0100
T02C0.0394
%
T01
X7845Y4162
X10752Y3446
T02
X625Y600
X1625Y600
X2625Y600
X3625Y600
X4625Y600
X5625Y600
X6625Y600
X7625Y600
X8625Y600
X9625Y600
X10625Y600
X11625Y600
X11625Y6600
X10625Y6600
X9625Y6600
X8625Y6600
X7625Y6600
X6625Y6600
X5625Y6600
X4625Y6600
X3625Y6600
X2625Y6600
X1625Y6600
X625Y6600
M30
